# xmcd
#
# Track frame offsets: 
#        150
#        16192
#        35977
#        58320
#        73002
#        89210
#        105725
#        121495
#        139077
#        159657
#        180177
#        193015
#        211759
#        227630
#
# Disc length: 3242 seconds
#
# Revision: 0
# Processed by: cddbd v1.5.1PL2 Copyright (c) Steve Scherf et al.
# Submitted via: ExactAudioCopy v0.95b4
#
DISCID=ca0ca80e
DTITLE=บานเย็น  รากแก่น - หมอลำอินเตอร์สะท้านทรวง
DYEAR=2001
DGENRE=Country
TTITLE0=จิ้วต่องต้อนอ้อนผู้บ่าว
TTITLE1=คอยอ้าย
TTITLE2=ยอมเจ็บบ่ยอมอาย
TTITLE3=ตั้งตาคอย
TTITLE4=หัวใจเตื้องต่อ
TTITLE5=เบิ่งนครพนม
TTITLE6=ตกลงทุกอย่าง
TTITLE7=เสื้อหลายสีพี่หลายใจ
TTITLE8=สาวหมอลำ
TTITLE9=ฝากรักจากแดนไกล
TTITLE10=คอยฮักใต้ต้นบักแงว
TTITLE11=มาได้ทุกเวลา
TTITLE12=สาวไทยพวนรัญจวนใจ
TTITLE13=มนต์หมอลำ
EXTD=
EXTT0=
EXTT1=
EXTT2=
EXTT3=
EXTT4=
EXTT5=
EXTT6=
EXTT7=
EXTT8=
EXTT9=
EXTT10=
EXTT11=
EXTT12=
EXTT13=
PLAYORDER=
